<svg width="163" height="163" viewBox="0 0 163 163" fill="none" xmlns="http://www.w3.org/2000/svg">
<g clip-path="url(#clip0_304:265)">
<path fill-rule="evenodd" clip-rule="evenodd" d="M5.27528 19.1659C21.5892 88.6152 87.6284 117.359 154.175 119.47C155.318 119.509 156.219 120.466 156.181 121.609C156.142 122.752 155.185 123.653 154.042 123.615C85.6321 121.448 18.0091 91.5064 1.23921 20.1111C0.975705 18.9993 1.66777 17.8843 2.78472 17.6204C3.89644 17.3569 5.01133 18.0489 5.27528 19.1659Z" fill="#2C2D2A"/>
<path fill-rule="evenodd" clip-rule="evenodd" d="M152.859 121.504C149.746 119.613 145.812 117.283 145.373 117.005C133.484 109.487 123.398 100.527 114.272 89.7834C113.531 88.9123 113.639 87.6006 114.51 86.8589C115.381 86.1171 116.692 86.2252 117.434 87.0963C126.28 97.5175 136.059 106.21 147.593 113.501C148.265 113.927 157.112 119.159 158.821 120.352C159.524 120.837 159.771 121.331 159.819 121.453C160.094 122.091 160.008 122.618 159.863 123.009C159.696 123.448 159.243 124.107 158.29 124.504C157.291 124.915 155.02 125.257 154.453 125.39C145.915 127.415 136.209 128.931 127.531 132.155C119.256 135.229 111.908 139.861 107.66 148.245C107.143 149.267 105.892 149.673 104.87 149.157C103.849 148.641 103.442 147.389 103.959 146.368C108.71 136.995 116.837 131.702 126.084 128.267C134.711 125.063 144.323 123.492 152.859 121.504Z" fill="#2C2D2A"/>
</g>
<defs>
<clipPath id="clip0_304:265">
<rect width="150.13" height="150.13" fill="white" transform="matrix(-0.996334 0.0855454 0.0855454 0.996334 149.58 0)"/>
</clipPath>
</defs>
</svg>
